<?xml version="1.0" standalone="no"?>
<!DOCTYPE svg PUBLIC "-//W3C//DTD SVG 20010904//EN"
 "http://www.w3.org/TR/2001/REC-SVG-20010904/DTD/svg10.dtd">
<svg version="1.0" xmlns="http://www.w3.org/2000/svg"
 width="419.000000pt" height="326.000000pt" viewBox="0 0 419.000000 326.000000"
 preserveAspectRatio="xMidYMid meet">

<g transform="translate(0.000000,326.000000) scale(0.100000,-0.100000)"
fill="#000000" stroke="none">
<path d="M1593 3156 c-32 -25 -80 -67 -108 -95 l-49 -51 -126 0 c-69 -1 -156
-7 -195 -14 l-70 -14 -70 60 c-76 65 -151 108 -188 108 -61 0 -94 -108 -84
-275 4 -72 2 -84 -19 -115 -28 -40 -30 -67 -9 -90 14 -15 12 -23 -20 -76 -41
-68 -61 -129 -77 -234 l-12 -75 -74 -59 c-185 -148 -326 -372 -394 -626 -29
-108 -36 -363 -14 -482 28 -147 102 -337 168 -431 18 -25 19 -33 8 -77 -16
-68 6 -145 59 -200 44 -46 73 -51 136 -20 l42 20 84 -56 c287 -193 630 -249
968 -158 l93 25 22 -20 c37 -35 96 -53 174 -54 119 -1 151 38 177 213 l16 104
66 69 c198 211 306 490 304 792 0 226 -58 434 -168 608 -20 33 -24 47 -18 86
7 58 -10 192 -29 229 -8 15 -33 46 -55 70 -38 43 -39 44 -46 145 -5 71 -14
117 -30 152 -28 64 -102 161 -153 202 -34 28 -42 41 -57 105 -26 107 -64 208
-92 246 -37 49 -83 45 -160 -12z m135 -13 c26 -38 56 -122 77 -217 l18 -78
-47 -46 -46 -47 -27 18 c-60 39 -194 97 -259 113 -96 23 -267 21 -362 -4 l-72
-19 6 21 c15 50 32 63 101 77 73 14 296 19 309 6 4 -4 2 -13 -4 -19 -7 -7 -12
-15 -12 -20 0 -4 42 36 93 89 87 91 166 153 193 153 7 0 21 -12 32 -27z m-867
-61 c24 -16 71 -53 103 -83 l58 -54 -12 -42 c-12 -38 -18 -44 -68 -64 -57 -23
-194 -109 -207 -129 -4 -6 15 5 43 24 64 47 199 109 282 131 36 9 117 19 181
22 96 4 129 2 199 -16 194 -49 344 -153 439 -302 23 -35 41 -60 41 -55 0 21
-78 134 -127 182 l-54 53 43 39 c30 29 47 38 58 32 23 -12 117 -110 145 -152
23 -34 65 -129 65 -147 0 -14 -101 -51 -139 -51 -32 1 -40 7 -75 56 -59 82
-194 206 -270 249 -101 57 -171 75 -285 75 -190 0 -345 -46 -499 -147 -43 -29
-55 -33 -67 -23 -21 17 -19 43 4 64 17 15 20 35 23 169 4 207 21 231 119 169z
m553 -258 c60 -15 166 -67 216 -106 52 -39 171 -163 203 -210 17 -26 39 -48
48 -48 21 0 29 -20 29 -76 0 -41 -3 -45 -39 -63 -21 -11 -55 -39 -74 -61 l-35
-41 -12 36 c-7 20 -14 35 -16 33 -2 -2 4 -26 12 -53 9 -28 18 -106 21 -175 5
-118 3 -134 -31 -286 -20 -89 -36 -170 -36 -182 0 -28 -11 -33 -81 -41 -58 -7
-58 -7 -69 22 -16 47 -12 94 20 257 38 191 41 336 10 490 -23 113 -69 241
-100 280 -13 16 -8 -2 15 -52 50 -110 85 -247 92 -360 3 -54 4 -98 1 -98 -2 0
-19 11 -37 24 -18 14 -40 22 -49 19 -14 -4 -15 -3 -3 5 13 9 12 13 -6 29 -35
32 -81 98 -128 184 -27 52 -45 76 -45 62 0 -22 25 -150 37 -188 5 -18 4 -19
-12 -5 -29 24 -100 139 -135 220 -18 41 -34 76 -35 78 -7 7 8 -168 21 -258 7
-52 12 -96 10 -98 -2 -2 -20 23 -40 55 -45 72 -86 196 -93 286 -6 64 -23 105
-23 54 0 -13 -13 -50 -29 -83 -49 -102 -80 -226 -81 -318 l-1 -41 -14 26 c-16
29 -34 130 -36 199 l-2 45 -6 -40 c-4 -22 -15 -55 -25 -74 -56 -106 -78 -210
-76 -361 1 -151 9 -191 48 -239 29 -36 29 -39 16 -76 -7 -21 -21 -50 -32 -64
-20 -28 -95 -71 -125 -71 -17 0 -17 2 3 30 64 90 82 240 55 460 -23 189 -17
351 18 470 27 91 29 115 4 52 -47 -118 -59 -318 -32 -537 8 -65 15 -145 15
-176 0 -79 -44 -249 -65 -249 -12 0 -67 127 -81 187 -23 96 -23 434 0 602 32
235 82 325 234 422 152 96 417 144 576 103z m-285 -559 c41 -83 121 -188 101
-133 -11 32 -40 235 -40 281 0 28 5 23 46 -53 25 -46 50 -90 56 -97 8 -10 4
-18 -13 -33 -27 -22 -23 -25 14 -11 21 8 29 5 53 -20 34 -36 47 -37 34 -3 -27
69 11 74 65 8 40 -49 37 -64 -12 -64 -43 0 -129 -40 -151 -70 -30 -40 -28 -45
12 -21 44 27 46 27 40 -11 -5 -36 20 -95 47 -111 24 -15 66 0 86 29 19 29 22
109 5 126 -7 7 -12 16 -12 20 0 15 21 8 45 -16 19 -20 24 -32 20 -58 -5 -27
-4 -29 5 -13 5 11 14 32 20 47 7 20 14 26 26 21 14 -5 16 -17 11 -82 -3 -42
-18 -129 -32 -193 -14 -65 -25 -138 -25 -162 0 -42 -3 -47 -45 -76 -79 -55
-193 -103 -239 -102 -125 1 -382 147 -433 246 -20 39 -33 286 -14 286 6 0 11
-6 11 -14 0 -8 9 -24 21 -37 18 -21 20 -22 14 -4 -4 11 -9 34 -12 51 -4 27 -1
32 26 44 38 15 47 9 31 -21 -15 -27 -6 -85 16 -110 20 -22 53 -24 78 -6 22 16
39 106 24 125 -6 6 -7 12 -2 12 5 1 -3 8 -19 16 -38 20 -157 35 -150 18 4 -10
-24 -34 -40 -34 -6 0 9 70 24 118 9 27 15 32 43 32 29 0 34 -4 44 -38 6 -20
18 -46 26 -57 14 -19 15 -16 16 34 0 49 2 53 21 48 20 -5 20 -5 4 13 -14 16
-16 30 -11 69 7 54 44 169 71 222 l18 34 18 -85 c10 -47 36 -121 58 -165z
m923 179 c4 -21 7 -63 7 -91 1 -47 3 -53 26 -59 13 -3 29 -11 34 -18 8 -9 -3
-11 -47 -9 -49 3 -64 0 -108 -26 -60 -35 -80 -70 -90 -158 -6 -61 -8 -63 -34
-63 -54 0 -57 5 -49 75 5 35 15 78 24 94 16 32 82 101 96 101 5 0 9 36 11 81
l3 81 50 18 c28 10 54 17 60 16 5 -2 13 -20 17 -42z m-686 -115 c11 -22 13
-34 5 -42 -14 -14 -17 -10 -25 36 -8 45 -2 47 20 6z m544 -14 c0 -2 -25 -28
-55 -58 -35 -34 -57 -64 -61 -85 -9 -43 -24 -41 -24 4 0 29 9 44 54 90 30 30
62 54 70 54 9 0 16 -2 16 -5z m-1026 -86 c-5 -9 -34 -13 -34 -4 0 2 5 16 12
30 12 26 12 26 20 5 4 -12 6 -26 2 -31z m1251 9 c32 -28 44 -79 45 -183 0
-122 -15 -193 -47 -228 -48 -50 -122 -87 -176 -87 -45 0 -47 1 -37 20 17 31 9
84 -13 88 -13 3 -23 -8 -35 -37 -9 -22 -21 -39 -27 -38 -5 2 -20 18 -32 37
-19 28 -23 46 -23 117 l0 85 42 -4 42 -3 12 79 c14 91 33 121 94 153 57 30
120 31 155 1z m-1580 -271 c0 -226 2 -247 23 -317 13 -41 32 -89 43 -106 10
-17 19 -38 19 -45 -1 -18 -47 -52 -60 -44 -5 3 -28 8 -52 12 -115 16 -146 1
-177 -84 -12 -32 -26 -65 -31 -73 -31 -48 -39 -76 -50 -180 l-11 -115 44 -85
44 -85 -25 -63 c-18 -46 -27 -60 -36 -53 -22 19 -105 205 -130 293 -112 390 1
809 297 1101 49 48 92 87 95 87 4 0 7 -109 7 -243z m911 88 c3 -8 3 -19 -1
-25 -10 -16 -35 7 -28 26 7 18 22 18 29 -1z m-471 -55 c0 -7 -6 -15 -12 -17
-8 -3 -13 4 -13 17 0 13 5 20 13 18 6 -3 12 -11 12 -18z m390 -2 c14 -31 30
-33 54 -7 25 27 27 19 6 -21 -9 -18 -24 -30 -35 -30 -21 0 -50 35 -50 62 0 25
13 23 25 -4z m-415 -49 c21 25 27 13 10 -20 -14 -25 -45 -24 -64 3 -21 30 -9
43 15 16 l19 -23 20 24z m1266 -121 c121 -238 152 -516 87 -778 -39 -156 -140
-349 -241 -460 l-41 -45 -1 145 c-1 238 -28 441 -71 540 -23 52 -89 124 -131
141 -37 15 -36 26 4 31 29 5 38 -1 78 -45 l45 -51 6 95 c4 69 15 120 39 192
32 91 37 100 82 133 47 33 108 113 108 141 0 24 9 14 36 -39z m-416 -53 c29
-30 23 -51 -8 -30 -33 23 -55 72 -47 104 7 26 7 25 20 -12 7 -22 23 -49 35
-62z m100 33 c0 -25 -60 -138 -101 -189 -31 -39 -130 -96 -217 -124 -68 -22
-84 -16 -50 18 21 21 37 27 68 27 51 0 128 38 165 82 16 18 48 75 72 126 41
87 63 108 63 60z m-111 -129 c-22 -43 -81 -97 -87 -79 -2 6 4 51 13 100 l17
88 38 -37 38 -36 -19 -36z m170 35 c2 -2 -14 -4 -37 -4 -23 0 -42 4 -42 9 0 9
69 4 79 -5z m31 -7 c0 -2 -15 -48 -34 -103 -19 -54 -38 -121 -42 -149 l-7 -50
-15 35 c-8 19 -18 66 -21 103 l-6 68 -60 -80 c-70 -93 -91 -103 -161 -72 -26
12 -45 23 -43 25 2 2 21 11 42 19 l37 16 15 -36 c19 -44 29 -39 13 5 -11 29
-10 33 11 49 48 33 93 77 121 119 21 30 35 41 48 37 10 -2 34 0 53 5 39 12 49
13 49 9z m-1020 -163 c69 -42 67 -50 -7 -23 -20 7 -23 4 -28 -29 -9 -52 -35
-131 -45 -137 -5 -3 -27 -3 -49 1 -38 6 -41 9 -41 38 0 17 -4 47 -9 67 -7 31
-5 41 15 65 13 16 28 44 35 62 10 32 12 32 32 18 12 -9 56 -37 97 -62z m513
-21 c-35 -113 10 -247 100 -303 l28 -17 -62 -57 c-34 -31 -68 -56 -75 -56 -18
0 -51 46 -59 79 -3 16 -14 36 -23 44 -27 23 -178 69 -260 78 -41 5 -77 10 -79
12 -2 3 4 23 13 46 17 44 21 45 98 35 50 -7 58 -23 34 -67 -10 -19 -9 -20 4
-9 9 7 21 41 28 76 l12 64 57 21 c31 11 86 38 121 60 36 22 68 40 72 41 3 0
-1 -21 -9 -47z m32 -13 c-21 -40 -12 -52 27 -38 25 9 37 8 65 -7 33 -18 34
-20 26 -64 -8 -53 -8 -130 1 -166 8 -32 0 -31 -56 4 -65 41 -92 101 -91 200 1
88 18 147 34 119 7 -12 5 -27 -6 -48z m329 -62 c7 -32 -8 -37 -39 -14 -19 14
-19 15 -1 35 22 24 30 19 40 -21z m-1094 -23 c0 -25 -4 -45 -8 -45 -7 0 -42
62 -42 75 0 3 23 11 43 14 4 0 7 -19 7 -44z m350 24 c41 -6 79 -14 83 -19 5
-4 -43 -7 -105 -6 -114 1 -114 1 -110 24 4 20 9 23 31 18 14 -3 60 -10 101
-17z m-566 -60 c48 -28 84 -54 81 -59 -12 -20 -59 -19 -131 4 l-77 25 -29 -20
c-33 -24 -32 -24 -13 32 16 47 38 69 66 69 9 0 56 -23 103 -51z m101 6 c91
-31 459 -115 502 -115 18 0 83 -16 144 -36 92 -29 112 -39 119 -60 18 -46 11
-46 -46 0 -31 26 -59 46 -63 46 -4 0 -50 9 -102 20 -51 11 -100 18 -107 15 -7
-2 -12 -17 -11 -32 1 -16 -2 -35 -5 -45 -8 -18 -7 -18 82 -38 29 -7 60 -9 68
-6 17 6 131 -71 120 -81 -7 -8 -105 17 -155 39 -23 11 -62 20 -85 21 -38 2
-41 0 -44 -26 -5 -45 -45 -58 -149 -50 -81 6 -97 11 -203 64 -132 66 -164 76
-185 59 -26 -21 -18 15 10 48 l25 30 -21 26 c-11 14 -17 26 -12 27 4 0 27 1
51 3 39 2 61 16 62 38 0 4 -21 19 -47 32 -27 13 -57 32 -68 41 -19 15 -19 16
15 9 19 -3 67 -17 105 -29z m1079 26 c7 -10 -26 -91 -36 -91 -5 0 -8 23 -8 50
0 43 3 50 19 50 11 0 22 -4 25 -9z m-754 -70 c-11 -22 -27 -26 -48 -12 -10 6
-4 12 20 24 38 19 44 16 28 -12z m700 -2 c0 -11 5 -30 11 -41 9 -17 7 -24 -10
-41 l-21 -21 0 62 c0 35 4 62 10 62 6 0 10 -9 10 -21z m58 -9 c-14 -22 -24
-19 -15 5 4 8 11 15 17 15 6 0 6 -7 -2 -20z m-1242 -33 c57 -39 71 -77 29 -77
-14 0 -39 7 -56 15 -28 15 -30 15 -56 -11 -18 -18 -23 -29 -15 -32 19 -6 14
-42 -5 -43 -10 0 24 -14 74 -30 79 -25 95 -34 108 -60 21 -41 11 -52 -28 -29
-30 17 -137 43 -146 34 -6 -5 18 -12 72 -19 57 -8 113 -50 98 -75 -9 -12 -15
-12 -46 3 -37 18 -120 23 -129 8 -3 -5 14 -6 37 -4 61 7 114 -17 132 -61 16
-38 18 -133 7 -273 -5 -54 -4 -79 3 -72 5 5 10 83 10 184 l0 175 27 0 c32 0
63 36 80 94 16 56 22 62 54 47 l27 -12 -31 -32 c-79 -82 -100 -215 -50 -317
l27 -55 -101 -95 c-55 -52 -121 -110 -146 -127 -77 -56 -129 -40 -167 49 -21
52 -19 87 11 165 14 37 36 97 48 132 l24 63 -44 82 c-40 76 -43 86 -41 153 1
39 5 75 10 79 4 4 7 24 7 44 0 42 27 82 74 111 41 25 46 24 102 -14z m1386
-14 c79 -85 108 -218 115 -533 8 -350 -21 -534 -87 -567 -31 -16 -102 -16
-155 -2 -62 17 -99 67 -196 265 -76 153 -95 184 -119 194 -16 7 -52 34 -80 61
-46 46 -54 50 -116 58 -59 7 -83 19 -84 43 0 8 48 21 143 38 37 7 66 15 63 17
-5 5 -175 -23 -201 -33 -7 -3 -19 4 -25 16 -19 36 14 59 122 84 l93 22 -78 29
c-84 30 -98 32 -199 20 -71 -8 -83 -2 -50 28 18 16 124 47 164 47 13 0 58 -9
99 -20 89 -24 89 -24 89 -6 0 20 -111 102 -150 111 -60 13 -110 37 -121 57
-19 36 3 39 108 15 100 -21 104 -24 190 -94 48 -39 98 -80 111 -90 17 -13 30
-47 51 -133 49 -199 67 -226 254 -383 31 -27 66 -65 77 -85 10 -20 19 -32 20
-26 1 27 -64 101 -152 173 -52 44 -98 86 -101 93 -3 8 -4 91 -4 184 l2 169 33
70 c36 75 129 205 147 205 6 0 23 -12 37 -27z m-1239 -155 c53 -24 58 -41 33
-111 -19 -52 -44 -77 -78 -77 -27 0 -37 13 -19 24 5 3 12 22 15 42 9 43 -10
76 -56 100 l-32 17 23 19 c26 20 40 19 114 -14z m608 -155 c27 -10 49 -21 49
-24 0 -4 -17 -10 -37 -14 -21 -3 -48 -9 -60 -12 -24 -5 -47 25 -37 51 8 20 25
20 85 -1z m-565 -488 c-20 -54 -40 -103 -45 -108 -6 -6 -27 3 -56 23 l-46 32
88 83 c48 45 89 79 91 75 1 -4 -13 -51 -32 -105z m924 -225 c0 -5 -4 -10 -10
-10 -5 0 -10 5 -10 10 0 6 5 10 10 10 6 0 10 -4 10 -10z"/>
<path d="M1381 1737 c-6 -8 -28 -22 -48 -31 -26 -12 -44 -29 -57 -56 -34 -70
-56 -100 -79 -110 -14 -5 -16 -9 -6 -9 21 -1 50 32 85 97 22 42 39 59 76 78
26 13 48 29 48 34 0 14 -5 13 -19 -3z"/>
<path d="M1063 1672 c9 -13 105 -22 152 -13 34 6 28 8 -36 8 -42 1 -86 4 -99
8 -14 4 -20 3 -17 -3z"/>
<path d="M1117 1539 c7 -7 15 -10 18 -7 3 3 -2 9 -12 12 -14 6 -15 5 -6 -5z"/>
<path d="M657 1253 c-14 -13 -7 -33 16 -43 20 -10 20 -10 5 3 -26 20 -22 35
10 40 l27 4 -26 2 c-14 0 -29 -2 -32 -6z"/>
<path d="M728 1243 c7 -3 16 -2 19 1 4 3 -2 6 -13 5 -11 0 -14 -3 -6 -6z"/>
<path d="M838 1213 c7 -3 16 -2 19 1 4 3 -2 6 -13 5 -11 0 -14 -3 -6 -6z"/>
<path d="M918 1193 c7 -3 16 -2 19 1 4 3 -2 6 -13 5 -11 0 -14 -3 -6 -6z"/>
<path d="M935 1140 l-60 -7 57 -1 c31 -1 60 3 63 8 3 6 5 9 3 8 -2 -1 -30 -4
-63 -8z"/>
<path d="M808 1133 c7 -3 16 -2 19 1 4 3 -2 6 -13 5 -11 0 -14 -3 -6 -6z"/>
<path d="M2524 1621 c-69 -42 -108 -189 -65 -242 16 -20 28 -24 74 -24 63 0
94 21 129 88 30 59 20 71 -55 64 -79 -7 -97 -14 -97 -39 0 -18 4 -19 50 -13
57 8 64 -2 23 -35 -17 -13 -38 -20 -57 -18 -29 3 -31 6 -34 48 -2 35 3 54 25
88 31 47 59 60 93 42 18 -10 25 -9 38 3 13 14 11 18 -19 36 -42 26 -65 26
-105 2z"/>
<path d="M2824 1607 c-101 -152 -131 -214 -120 -243 10 -26 33 -14 51 26 17
38 21 40 61 40 39 0 44 -3 61 -37 21 -44 49 -51 47 -13 -1 21 -13 77 -49 238
-7 31 -26 27 -51 -11z m26 -109 c0 -13 -8 -18 -26 -18 l-25 0 17 30 c18 30 34
25 34 -12z"/>
<path d="M3026 1632 c-12 -20 -64 -255 -59 -268 7 -18 33 -15 44 6 4 8 13 42
20 74 l13 59 23 -76 c33 -107 58 -101 98 22 20 60 25 56 44 -29 14 -69 24 -85
46 -76 19 7 19 2 -9 141 -28 133 -36 157 -53 153 -21 -4 -27 -18 -53 -107 -25
-85 -32 -82 -51 18 -6 36 -16 72 -22 79 -11 14 -33 16 -41 4z"/>
<path d="M3294 1626 c-8 -22 4 -36 32 -36 24 0 24 -1 24 -89 l0 -90 -27 -3
c-20 -2 -28 -9 -28 -23 0 -18 7 -20 85 -20 78 0 85 2 85 20 0 15 -8 21 -32 23
l-33 3 0 89 0 89 33 3 c24 2 32 8 32 23 0 18 -8 20 -83 23 -66 2 -83 0 -88
-12z"/>
<path d="M3507 1633 c-4 -3 -7 -69 -7 -145 0 -118 2 -140 16 -145 26 -10 34
16 34 106 l0 85 88 -94 c112 -119 121 -118 124 12 2 154 -4 191 -30 186 -15
-3 -17 -15 -13 -106 2 -64 0 -102 -7 -102 -11 0 -82 82 -136 158 -36 49 -54
61 -69 45z"/>
<path d="M3874 1621 c-69 -42 -108 -189 -65 -242 16 -20 28 -24 74 -24 63 0
94 21 129 88 30 59 20 71 -55 64 -79 -7 -97 -14 -97 -39 0 -18 4 -19 50 -13
57 8 64 -2 23 -35 -17 -13 -38 -20 -57 -18 -29 3 -31 6 -34 48 -2 35 3 54 25
88 31 47 59 60 93 42 18 -10 25 -9 38 3 13 14 11 18 -19 36 -42 26 -65 26
-105 2z"/>
<path d="M2523 1110 c-36 -22 -53 -48 -53 -83 0 -34 22 -49 83 -55 81 -7 103
-38 47 -67 -41 -21 -86 -19 -109 6 -23 25 -51 19 -51 -9 0 -65 142 -83 210
-26 30 26 38 61 24 99 -10 24 -58 45 -104 45 -28 0 -43 5 -47 16 -10 27 26 45
82 42 39 -2 50 0 53 13 2 11 -8 20 -29 28 -45 16 -69 14 -106 -9z"/>
<path d="M2694 1116 c-10 -25 5 -36 51 -36 l43 0 7 -115 c4 -63 12 -118 17
-121 5 -3 15 0 24 6 12 10 13 32 8 121 l-7 108 54 3 c46 3 54 6 54 23 0 19 -8
20 -123 23 -101 2 -123 0 -128 -12z"/>
<path d="M3053 1115 c-49 -21 -87 -86 -87 -150 -1 -60 17 -89 71 -111 91 -39
182 22 199 131 16 108 -79 176 -183 130z m118 -56 c17 -17 20 -29 16 -62 -10
-72 -63 -118 -120 -103 -63 15 -72 97 -18 155 36 38 89 43 122 10z"/>
<path d="M3277 1123 c-4 -3 -7 -66 -7 -140 0 -113 2 -135 16 -140 22 -8 35 15
31 55 -1 17 -1 32 3 32 11 0 76 -43 102 -67 28 -27 58 -26 58 3 0 8 -16 29
-35 46 l-34 31 31 28 c25 24 29 34 23 57 -9 38 -52 80 -94 92 -42 11 -85 13
-94 3z m104 -60 c15 -9 31 -24 34 -32 8 -22 -30 -51 -66 -51 -28 0 -29 2 -29
50 0 56 11 62 61 33z"/>
<path d="M3517 1123 c-3 -5 -6 -63 -6 -130 -2 -152 5 -163 102 -163 69 0 93
10 84 34 -5 12 -21 16 -72 16 l-65 0 0 39 0 39 68 8 c57 8 67 12 67 29 0 18
-6 20 -67 17 l-68 -2 0 35 0 35 75 0 c67 0 75 2 75 19 0 11 -9 21 -22 25 -33
8 -166 7 -171 -1z"/>
</g>
</svg>
